
<svg width="36px" height="40px" viewBox="0 0 36 40" version="1.1" xmlns="http://www.w3.org/2000/svg" xmlns:xlink="http://www.w3.org/1999/xlink">
    <defs></defs>
    <g id="Page-1" stroke="none" stroke-width="1" fill="none" fill-rule="evenodd">
        <g id="Dashboard" transform="translate(-144.000000, -19.000000)">
            <g id="logo" transform="translate(144.000000, 19.000000)">
                <g id="Group-36">
                    <polygon id="Fill-32" fill="#454545" points="17.9656161 39.8236671 -5.57275542e-05 28.3587018 -5.57275542e-05 21.7854979 17.9656161 33.2504632"></polygon>
                    <polygon id="Fill-33" fill="#202020" points="0 28.3204993 0 2.86829404 5.83500929 6.61353675 5.83500929 25.4924272"></polygon>
                    <polygon id="Fill-34" fill="#454545" points="30.1346526 0.108859917 17.9656495 7.87462968 5.83520991 0.133492372 -2.22910217e-05 2.90652982 17.9656495 14.3714951 35.9312099 2.90652982"></polygon>
                    <polygon id="Fill-35" fill="#FD561F" points="35.9696173 2.86829404 32.2567133 5.25142857 17.965605 14.3714286 17.965605 20.9447434 30.134608 13.1788627 30.134608 16.0833842 17.965605 23.849154 17.965605 30.4223578 30.134608 22.6565881 30.134608 25.4846602 17.965605 33.25043 17.965605 39.8236338 30.134608 32.0578641 30.134608 32.065742 32.2554873 30.7044105 35.9312768 28.3586685 35.9312768 28.3451318 35.9696173 28.3204993"></polygon>
                </g>
            </g>
        </g>
    </g>
</svg>