
<svg width="113px" height="126px" viewBox="0 0 113 126" version="1.1" xmlns="http://www.w3.org/2000/svg" xmlns:xlink="http://www.w3.org/1999/xlink">
    <defs></defs>
    <g id="Page-1" stroke="none" stroke-width="1" fill="none" fill-rule="evenodd">
        <g id="Login1" transform="translate(-584.000000, -80.000000)">
            <g id="logo" transform="translate(584.000000, 80.000000)">
                <g id="Group-36">
                    <polygon id="Fill-32" fill="#454545" points="56.3920728 125.444551 -0.000174922601 89.3299107 -0.000174922601 68.6243184 56.3920728 104.738959"></polygon>
                    <polygon id="Fill-33" fill="#202020" points="0 89.2095728 0 9.03512621 18.3154458 20.8326408 18.3154458 80.3011456"></polygon>
                    <polygon id="Fill-34" fill="#454545" points="94.5893263 0.342908738 56.3921777 24.8050835 18.3160755 0.420500971 -6.99690403e-05 9.15556893 56.3921777 45.2702097 112.784076 9.15556893"></polygon>
                    <polygon id="Fill-35" fill="#FD561F" points="112.904632 9.03512621 101.250239 16.542 56.3920378 45.27 56.3920378 65.9759417 94.5891864 41.5134175 94.5891864 50.6626602 56.3920378 75.124835 56.3920378 95.8304272 94.5891864 71.3682524 94.5891864 80.2766796 56.3920378 104.738854 56.3920378 125.444447 94.5891864 100.982272 94.5891864 101.007087 101.246391 96.7188932 112.784285 89.3298058 112.784285 89.287165 112.904632 89.2095728"></polygon>
                </g>
            </g>
        </g>
    </g>
</svg>